<svg width="363" height="230" viewBox="0 0 363 230" fill="none" xmlns="http://www.w3.org/2000/svg">
<g clip-path="url(#clip0)">
<path d="M363 0H2V230H363V0Z" fill="#F0F9FA"/>
<path d="M160.173 66.0981L164.699 68.3681L170.266 63.8457C171.497 62.8148 172.753 61.6797 174.002 60.1033C175.049 58.9194 175.863 57.7908 176.291 56.9017C176.542 56.3008 177.124 55.2276 178.06 53.5779C178.739 52.0878 179.167 51.1986 179.161 50.7573C179.123 49.9789 178.724 49.3357 177.884 48.699C178.006 48.1778 178.048 47.5281 178.244 46.6943C178.262 46.1487 178.255 45.7074 178.144 45.2417C177.537 44.5496 176.991 44.5317 176.379 45.2678L168.817 53.6107L168.992 51.4529C169.15 49.8407 169.235 48.5412 169.222 47.6586C169.184 46.8801 168.841 46.4698 168.424 46.3721C167.878 46.3542 167.468 46.6978 167.193 47.4029C166.134 49.5737 165.253 51.4563 164.734 53.2037C164.337 54.4299 163.762 55.9444 162.985 57.8514L160.173 66.0981Z" fill="#BF8F68"/>
<path d="M154.776 115.5C152.076 134.1 152.176 165 151.476 178.2C150.776 191.4 142.576 171.2 136.876 171C131.476 170.7 127.776 150.6 126.676 145.2C126.676 145.2 131.676 133.3 140.176 106.5C149.776 76.4004 157.576 67.7004 159.976 64.4004L166.276 67.4004C166.276 67.4004 157.976 93.6004 154.776 115.5Z" fill="#C5E9EA"/>
<path d="M92.975 93.9002C99.9338 93.9002 105.575 88.259 105.575 81.3002C105.575 74.3414 99.9338 68.7002 92.975 68.7002C86.0162 68.7002 80.375 74.3414 80.375 81.3002C80.375 88.259 86.0162 93.9002 92.975 93.9002Z" fill="url(#paint0_linear)"/>
<path d="M117.832 130.919C131.566 126.728 139.46 112.71 135.461 99.6088C131.463 86.5079 117.088 79.2855 103.353 83.477C89.6186 87.6685 81.7254 101.687 85.7235 114.788C89.7215 127.888 104.097 135.111 117.832 130.919Z" fill="#59453C"/>
<path d="M136.975 142.5C134.875 141.7 131.175 140.9 127.575 140.3C125.775 140 124.375 138.4 124.375 136.5V123L108.375 123.5V136.9C108.375 138.5 106.775 140.3 105.075 140.4C101.075 140.8 98.475 141.5 94.875 142.9C94.875 142.9 98.575 154.4 108.075 158.3C111.775 159.8 120.175 160.4 123.975 159.3C132.875 156.6 136.975 142.5 136.975 142.5Z" fill="url(#paint1_linear)"/>
<path d="M97.5766 144.9C96.7766 145.4 95.8766 146.1 95.0766 146.8C87.0766 153.8 84.4766 164.6 84.4766 177L84.7766 246H147.877L148.177 177.3C148.177 165.5 146.277 154.9 138.977 147.9C137.777 146.8 135.777 145.3 135.277 144.9C120.177 151.7 105.877 148.7 97.5766 144.9Z" fill="#2CB2B9"/>
<path d="M128.176 140C128.176 140 139.676 163 139.676 184.5C139.676 206 138.476 256.9 138.476 256.9L165.376 254.6C165.376 254.6 163.876 238.9 158.876 228.4C149.776 209.5 149.576 205.5 150.176 198.5C151.376 184.5 152.476 181 150.176 165.8C147.876 150.6 143.976 142 128.176 140Z" fill="#C5E9EA"/>
<path d="M133.075 105.3C137.375 120.4 131.375 128.4 121.575 131.4C111.775 134.4 100.975 127.6 97.4748 116.2C93.9748 104.8 99.1748 93.0999 108.975 90.0999C118.775 87.0999 129.775 93.7999 133.075 105.3Z" fill="#E0BB95"/>
<path d="M95.376 119.5C94.576 120.6 94.376 121.8 94.576 123.2C94.876 124.6 95.576 125.6 96.676 126.3C97.776 127.1 98.976 127.3 100.376 127.1C101.776 126.8 106.276 125.7 106.276 125.7L103.076 115.9C101.976 116.1 100.076 117 98.576 117.4C97.176 117.7 96.076 118.4 95.376 119.5Z" fill="#E0BB95"/>
<path d="M105.877 114.3L98.2773 116.6" stroke="#9B643D" stroke-width="1.6075" stroke-linecap="square" stroke-linejoin="round"/>
<path d="M91.8389 96.948C89.3402 104.287 89.4683 110.993 95.8709 116.945C101.164 115.878 107.549 110.102 110.212 107.627C114.442 103.816 119.531 97.6891 118.522 92.18C117.968 88.9253 114.452 85.1459 114.452 85.1459C114.058 84.2051 97.8389 83.701 91.8389 96.948Z" fill="#594539"/>
<path d="M117.184 85.6474C115.896 89.8855 119.982 106.608 135.135 102.838C133.538 96.9376 131.235 91.5873 126.346 88.0845C121.732 84.9343 117.398 84.6862 117.184 85.6474Z" fill="#594539"/>
<path d="M118.176 106L123.976 122.7L133.276 119.9L127.576 102.8L118.176 106Z" fill="url(#paint2_radial)"/>
<path d="M128.377 115.4C132.022 115.4 134.977 112.445 134.977 108.8C134.977 105.155 132.022 102.2 128.377 102.2C124.732 102.2 121.777 105.155 121.777 108.8C121.777 112.445 124.732 115.4 128.377 115.4Z" stroke="#9B643D" stroke-width="1.8169" stroke-linecap="round" stroke-linejoin="round"/>
<path d="M121.274 110.7C121.274 110.7 122.174 112.7 124.474 114.3C125.374 114.9 125.774 116.3 125.374 117.4C124.974 118.4 122.774 120 122.774 120.3L119.574 121.3L117.074 112L121.274 110.7Z" fill="#E0BB95"/>
<path d="M112.877 120.3C116.522 120.3 119.477 117.345 119.477 113.7C119.477 110.055 116.522 107.1 112.877 107.1C109.232 107.1 106.277 110.055 106.277 113.7C106.277 117.345 109.232 120.3 112.877 120.3Z" stroke="#9B643D" stroke-width="1.8169" stroke-linecap="round" stroke-linejoin="round"/>
<path d="M118.574 110.2L121.574 109.2" stroke="#9B643D" stroke-width="1.8169" stroke-linecap="round" stroke-linejoin="round"/>
<path d="M125.174 123.5C124.374 124.6 122.974 125.5 121.474 125.6C119.974 125.8 118.374 125.1 117.474 124C117.174 123.7 117.274 123.2 117.574 122.9C117.774 122.8 117.974 122.7 118.174 122.7H118.274C119.474 122.9 120.274 123.1 121.174 123.1C122.074 123.1 122.974 122.7 124.074 122.3C124.474 122.1 124.974 122.3 125.074 122.7C125.374 123 125.374 123.3 125.174 123.5Z" fill="#BF8F68"/>
<path d="M30.6529 88.6292L27.6224 92.6468L20.615 91.1145C19.0516 90.7482 17.4085 90.2531 15.6302 89.3966C14.1401 88.7176 12.9627 88.1118 12.0979 87.5793C11.6501 87.1445 10.6013 86.459 8.97606 85.4184C7.66348 84.4511 6.95182 83.7346 6.71242 83.3486C6.44208 82.6256 6.4046 81.8472 6.93709 80.9824C6.59347 80.5721 6.17005 80.033 5.66683 79.3654C5.34764 78.8508 5.21248 78.4893 5.10173 78.0235C5.32155 77.0855 5.91593 76.895 6.70087 77.2988L17.1982 81.2981L16.1054 79.3928C15.2276 77.9777 14.5892 76.9485 14.2391 76.0968C13.9688 75.3738 13.9867 74.8282 14.3726 74.5888C14.7585 74.3494 15.3839 74.496 15.936 74.9552C17.8006 76.3817 19.4812 77.6551 20.6961 79.0393C21.5918 79.9089 22.7757 80.956 24.3033 82.4135L30.6529 88.6292Z" fill="#BF8F68"/>
<path d="M104.276 140C101.776 140.3 99.4758 140.9 97.3758 141.7C97.3758 141.7 87.2758 133.6 66.8758 114.3C43.9758 92.4998 32.8758 88.5998 29.2758 86.7998L25.1758 92.3998C25.1758 92.3998 45.0758 111.5 58.3758 129.1C69.6758 144.1 80.9758 183.4 80.9758 183.4C82.5758 193.3 85.5758 204.3 84.7758 211.3C84.0758 217 83.5758 219.5 80.0758 231.2C76.6758 242.4 76.5758 261.6 76.5758 261.6L112.776 256.9C112.776 256.9 119.376 211.7 122.076 190.3C125.676 163.4 104.276 140 104.276 140Z" fill="#C5E9EA"/>
<path d="M111.777 114C111.777 112.8 112.577 111.6 113.877 111.2C114.477 111.1 115.277 111 115.877 111.4C116.477 111.7 116.977 112.2 117.077 112.9C117.177 113.1 116.977 113.4 116.777 113.4C116.677 113.4 116.577 113.4 116.477 113.4L116.377 113.3C115.577 112.9 115.077 112.8 114.477 113.1C113.877 113.2 113.377 113.8 112.677 114.4L112.577 114.5C112.377 114.7 112.077 114.7 111.877 114.5C111.777 114.2 111.777 114.1 111.777 114Z" fill="#33312D"/>
<path d="M125.676 109.7C125.676 108.5 126.476 107.3 127.776 106.9C128.376 106.8 129.176 106.7 129.776 107.1C130.376 107.4 130.876 107.9 130.976 108.6C131.076 108.8 130.876 109.1 130.676 109.1C130.576 109.1 130.476 109.1 130.376 109.1L130.276 109C129.476 108.6 128.976 108.5 128.376 108.8C127.776 108.9 127.276 109.5 126.576 110.1L126.476 110.2C126.276 110.4 125.976 110.4 125.776 110.2C125.676 109.9 125.676 109.8 125.676 109.7Z" fill="#33312D"/>
<path d="M222.401 52.5002C221.701 55.1002 221.101 57.6002 220.701 61.1002C220.601 62.2002 221.301 63.9002 221.101 65.2002C220.901 66.7002 219.401 70.3002 218.601 72.2002C217.401 75.4002 216.901 77.1002 214.801 80.2002L210.301 80.1002C210.301 80.1002 209.701 79.8002 209.901 78.6002C210.301 75.2002 209.201 73.8002 208.201 70.6002C207.701 69.1002 206.901 64.0002 208.301 62.5002C209.601 61.2002 209.901 61.5002 210.601 60.4002C211.701 58.5002 213.201 59.0002 214.201 58.0002C215.601 56.7002 217.401 58.1002 217.601 57.6002C219.101 54.0002 219.201 52.6002 219.901 51.0002C220.701 49.4002 223.001 50.3002 222.401 52.5002Z" fill="#9B643D"/>
<path d="M262.201 156.7C256.601 156.6 221.501 155.8 209.401 123.9C203.001 107.1 209.501 78.2002 209.501 78.2002L216.601 77.8002C216.601 77.8002 217.701 106.4 227.001 113.4C241.801 127.7 267.601 122 267.601 122C267.601 122 262.301 156.7 262.201 156.7Z" fill="url(#paint3_radial)"/>
<path d="M281.799 81.983C284.071 80.3183 284.537 77.0907 282.84 74.774C281.142 72.4573 277.924 71.9286 275.652 73.5933C273.38 75.2579 272.914 78.4855 274.611 80.8022C276.309 83.119 279.526 83.6476 281.799 81.983Z" fill="#594539"/>
<path d="M296.23 63.5489C298.814 61.6558 299.321 57.954 297.363 55.2809C295.404 52.6077 291.722 51.9753 289.138 53.8685C286.554 55.7616 286.047 59.4633 288.005 62.1365C289.963 64.8096 293.646 65.442 296.23 63.5489Z" fill="#594539"/>
<path d="M288.184 66.4355C290.768 64.5423 291.275 60.8406 289.317 58.1675C287.358 55.4943 283.676 54.8619 281.092 56.7551C278.508 58.6482 278.001 62.3499 279.959 65.0231C281.917 67.6962 285.6 68.3286 288.184 66.4355Z" fill="#594539"/>
<path d="M283.032 73.7601C285.616 71.867 286.123 68.1653 284.164 65.4921C282.206 62.8189 278.524 62.1866 275.94 64.0797C273.356 65.9728 272.848 69.6745 274.807 72.3477C276.765 75.0209 280.448 75.6532 283.032 73.7601Z" fill="#594539"/>
<path d="M314.396 87.2479C316.669 85.5832 317.135 82.3557 315.437 80.0389C313.74 77.7222 310.522 77.1936 308.25 78.8582C305.978 80.5228 305.512 83.7504 307.209 86.0672C308.906 88.3839 312.124 88.9125 314.396 87.2479Z" fill="#594539"/>
<path d="M306.071 65.4003C308.655 63.5072 309.162 59.8055 307.204 57.1323C305.245 54.4591 301.563 53.8268 298.979 55.7199C296.395 57.613 295.887 61.3147 297.846 63.9879C299.804 66.6611 303.487 67.2934 306.071 65.4003Z" fill="#594539"/>
<path d="M313.645 70.7568C316.229 68.8636 316.736 65.1619 314.778 62.4888C312.819 59.8156 309.137 59.1832 306.553 61.0764C303.969 62.9695 303.462 66.6712 305.42 69.3444C307.378 72.0175 311.061 72.6499 313.645 70.7568Z" fill="#594539"/>
<path d="M315.732 80.1067C318.316 78.2136 318.823 74.5118 316.865 71.8387C314.906 69.1655 311.224 68.5332 308.64 70.4263C306.056 72.3194 305.549 76.0211 307.507 78.6943C309.465 81.3674 313.148 81.9998 315.732 80.1067Z" fill="#594539"/>
<path d="M301.801 99.4002L280.101 95.9002C276.101 95.3002 273.901 88.3002 274.501 84.4002L276.301 73.2002C277.801 64.0002 286.601 57.7002 295.901 59.2002L298.401 59.6002C307.701 61.1002 314.001 69.8002 312.501 79.1002L310.701 90.3002C310.001 95.6002 305.801 100.1 301.801 99.4002Z" fill="#594539"/>
<path d="M255.901 232.1C255.901 232.1 247.301 182.7 249.401 161.5C251.501 140.3 255.001 135.8 256.901 131.6C263.301 117.1 278.201 122.2 290.101 122.2H297.401C312.801 122.2 320.901 122.4 330.001 134.4C342.501 150.9 317.501 189.8 323.101 231.7C324.601 242.5 255.901 232.1 255.901 232.1Z" fill="url(#paint4_radial)"/>
<path d="M307.502 122.5C305.202 125.5 294.702 132.7 288.902 136C287.102 137 284.602 136.9 283.802 134.7C282.002 129.8 283.802 124.3 282.402 121.7C287.002 121.5 294.202 120.4 294.202 120.4C294.202 120.4 302.302 120.6 307.502 122.5Z" fill="#9B643D"/>
<path d="M302.501 95.5002H284.601V119.1C284.601 121.7 282.501 121.7 282.501 121.7L307.601 122.5C307.601 122.5 302.601 121.3 302.601 118.7L302.501 95.5002Z" fill="url(#paint5_radial)"/>
<path d="M272.301 88.2002C271.801 91.4002 273.901 94.3002 277.001 94.9002C277.201 94.9002 280.001 95.4002 280.201 95.4002C283.101 95.6002 283.201 93.1002 283.701 90.2002C284.201 87.3002 285.001 84.9002 282.201 84.1002C282.001 84.0002 279.201 83.6002 278.901 83.5002C275.801 82.9002 272.801 85.1002 272.301 88.2002Z" fill="#9B643D"/>
<path d="M289.5 112.4L285.1 111.7C277.9 110.5 273 103.8 274.2 96.6002L277.5 76.3002C278.7 69.1002 285.4 64.2002 292.6 65.4002L297 66.1002C304.2 67.3002 309.1 74.0002 307.9 81.2002L304.6 101.5C303.5 108.6 296.7 113.5 289.5 112.4Z" fill="#9B643D"/>
<path d="M276.501 101.5L284.801 105.4L286.501 97.1002C286.601 96.5002 286.401 95.8002 285.901 95.4002L283.501 93.2002C283.001 92.7002 282.901 91.9002 283.401 91.4002L286.301 88.1002C287.001 87.3002 287.501 86.4002 287.601 85.3002L289.701 72.5002L281.501 71.2002L276.501 101.5Z" fill="url(#paint6_radial)"/>
<path d="M310.299 94.5004C309.799 97.7004 306.799 99.8004 303.699 99.3004C303.499 99.3004 300.699 98.8004 300.499 98.8004C297.699 98.0004 298.399 95.7004 298.899 92.7004C299.399 89.8004 299.399 87.3004 302.199 87.4004C302.399 87.4004 305.199 87.8004 305.499 87.9004C308.699 88.3004 310.799 91.3004 310.299 94.5004Z" fill="#9B643D"/>
<path d="M291.801 101.6C291.501 103.4 289.701 104.9 287.701 105.2C286.701 105.3 285.701 105.2 284.801 104.7C283.901 104.3 283.201 103.6 282.901 102.7C282.801 102.4 283.001 102 283.301 101.9C283.401 101.9 283.501 101.9 283.601 101.9H283.701C284.501 102 285.101 102.1 285.701 102.1C286.301 102.1 286.801 102.1 287.301 102C287.801 101.9 288.301 101.8 288.901 101.7C289.501 101.5 290.101 101.3 290.801 101H290.901C291.201 100.9 291.601 101 291.701 101.4C291.801 101.4 291.801 101.5 291.801 101.6Z" fill="#542A1C"/>
<path d="M304.202 63.9998L282.502 60.2998L275.402 76.2998L276.202 83.3998L278.602 73.2998C279.802 69.5998 282.902 68.6998 285.902 69.0998L299.102 71.1998C302.102 71.6998 304.302 74.2998 304.402 77.4998L303.402 84.5998C303.202 86.1998 304.202 87.6998 305.702 87.8998L307.402 88.1998L308.602 74.3998L304.202 63.9998Z" fill="#594539"/>
<path d="M300.802 75.0002C304.061 75.0002 306.702 72.3587 306.702 69.1002C306.702 65.8417 304.061 63.2002 300.802 63.2002C297.544 63.2002 294.902 65.8417 294.902 69.1002C294.902 72.3587 297.544 75.0002 300.802 75.0002Z" fill="#594539"/>
<g opacity="0.7">
<path opacity="0.7" d="M277.501 85.5002C278.001 84.2002 279.301 83.3002 280.901 83.4002C281.601 83.5002 282.401 83.8002 282.901 84.4002C283.401 85.0002 283.701 85.7002 283.601 86.4002C283.601 86.7002 283.301 86.8002 283.101 86.8002C283.001 86.8002 282.901 86.7002 282.801 86.6002L282.701 86.5002C282.001 85.8002 281.501 85.5002 280.801 85.5002C280.101 85.4002 279.401 85.7002 278.401 86.1002H278.301C278.001 86.2002 277.701 86.1002 277.601 85.8002C277.501 85.8002 277.501 85.6002 277.501 85.5002Z" fill="#231F20"/>
</g>
<g opacity="0.7">
<path opacity="0.7" d="M291.402 87.5002C291.902 86.2002 293.202 85.3002 294.802 85.4002C295.502 85.5002 296.302 85.8002 296.802 86.4002C297.302 87.0002 297.602 87.7002 297.502 88.4002C297.502 88.7002 297.202 88.8002 297.002 88.8002C296.902 88.8002 296.802 88.7002 296.702 88.6002L296.602 88.5002C295.902 87.8002 295.402 87.5002 294.702 87.5002C294.002 87.4002 293.302 87.7002 292.302 88.1002H292.202C291.902 88.2002 291.602 88.1002 291.502 87.8002C291.402 87.8002 291.402 87.6002 291.402 87.5002Z" fill="#231F20"/>
</g>
<path d="M287.602 102.9C285.302 103.1 282.902 102.5 282.902 102.5C282.902 102.2 283.002 102 283.302 101.9C283.402 101.9 283.502 101.9 283.602 101.9H283.702C284.502 102 285.102 102.1 285.702 102.1C286.302 102.1 286.802 102.1 287.302 102C287.802 101.9 288.302 101.8 288.902 101.7C289.502 101.5 290.102 101.3 290.802 101H290.902C291.202 100.9 291.602 101 291.702 101.4C291.802 101.4 289.902 102.7 287.602 102.9Z" fill="white"/>
<path d="M353.701 162.4C343.501 159.3 335.001 133.5 322.001 126.5C315.501 122.9 315.001 125 311.601 126.5C309.001 127.6 307.401 136.8 308.801 145.8C310.201 154.8 326.801 179.9 346.801 186C366.801 192.1 390.901 154.7 393.401 151.8L386.001 147.9C386.001 147.8 367.101 166.5 353.701 162.4Z" fill="#2CB2B9"/>
<path opacity="0.64" d="M33.8982 202.8C33.8982 202.8 29.9982 203.9 24.0982 199.5L20.6982 204.7C23.6982 207.5 27.5982 209.2 31.6982 209.4L33.8982 202.8Z" fill="#2B579A"/>
<path d="M63.1985 92.8L63.7985 97.9C63.7985 98.2 64.0985 98.4 64.3985 98.4L67.8985 97.6C68.1985 97.5 68.2985 97.3 68.2985 97L67.6985 91.4C67.6985 91.1 67.3985 90.9 67.0985 90.9H66.9985L63.4985 92.2C63.2985 92.3 63.0985 92.6 63.1985 92.8Z" fill="#77D672"/>
<path d="M212 98.7998C212 98.7998 211.4 101.7 206.5 103.9L208.7 107.9C211.5 106.9 214 105 215.5 102.4L212 98.7998Z" fill="#E3646A"/>
<path d="M66.5969 177.6C66.5969 177.6 65.9969 180.1 61.7969 182.1L63.6969 185.6C66.1969 184.8 68.2969 183.1 69.5969 180.8L66.5969 177.6Z" fill="#FAE969"/>
<path d="M191.7 16.0996C191.7 16.0996 190.9 19.8996 184.5 22.7996L187.4 27.9996C191.1 26.6996 194.3 24.1996 196.3 20.7996L191.7 16.0996Z" fill="#FAE969"/>
<path d="M243.499 80.9996L246.899 86.8996C247.099 87.1996 247.499 87.2996 247.799 87.0996C247.799 87.0996 247.799 87.0996 247.899 87.0996L251.699 84.3996C251.999 84.1996 252.099 83.7996 251.899 83.4996L248.199 76.9996C247.999 76.6996 247.599 76.5996 247.299 76.6996L247.199 76.7996L243.699 80.1996C243.399 80.3996 243.299 80.7996 243.499 80.9996Z" fill="#77D672"/>
<path d="M119.598 145.7C119.598 145.7 122.398 144.9 126.498 148.1L128.898 144.4C126.798 142.4 123.998 141.2 121.098 141L119.598 145.7Z" fill="#FAE969"/>
<path d="M36.7984 25.4C36.7984 25.4 37.3984 22.6 42.0984 20.4L39.9984 16.5C37.1984 17.4 34.8984 19.3 33.3984 21.8L36.7984 25.4Z" fill="#E3646A"/>
<path d="M145.5 8.99981C145.5 8.99981 147.9 11.2998 147.2 17.1998L152.3 17.3998C153 14.0998 152.6 10.6998 151 7.7998L145.5 8.99981Z" fill="#E3646A"/>
<path opacity="0.64" d="M276.5 27.0004C276.5 27.0004 280 27.5004 283.1 33.2004L287.7 30.2004C286.3 26.9004 283.8 24.1004 280.6 22.4004L276.5 27.0004Z" fill="#2B579A"/>
<path d="M245.198 194.8C245.198 194.8 248.098 195.3 250.698 199.9L254.498 197.5C253.398 194.7 251.298 192.5 248.598 191.1L245.198 194.8Z" fill="#77D672"/>
<path d="M117.398 199.7C117.398 199.7 120.398 198.9 124.898 202.3L127.598 198.3C125.298 196.1 122.298 194.8 119.098 194.6L117.398 199.7Z" fill="#E3646A"/>
<path d="M119.5 83.8C112.6 92.1 95.4 92.4 93 88.4C95.9 76.9 100 55.6 100 55.6C100 55.6 116.7 76.3 119.5 83.8Z" fill="#7BDDEF"/>
<path d="M96.3981 55.1C96.3981 55.3 96.1981 55.5 96.1981 55.6C96.2981 55.8 96.6981 55.7 96.6981 55.9C96.7981 56.1 96.5981 56.5 96.6981 56.6C96.7981 56.7 97.1981 56.7 97.2981 56.8C97.4981 57 97.4981 57.3 97.6981 57.5C97.9981 57.7 98.2981 57.5 98.5981 57.6C98.7981 57.7 98.8981 58 99.0981 58.1C99.3981 58.1 99.7981 58.1 100.198 58.1C100.598 58 100.698 57.7 100.998 57.5C101.198 57.4 101.398 57.6 101.598 57.6C101.798 57.5 101.898 57.2 102.098 57C102.298 56.8 102.098 56.4 102.198 56.2C102.398 55.9 102.798 56 102.898 55.6C102.898 55.4 102.598 55.2 102.598 54.9C102.598 54.8 102.998 54.5 103.098 54.4C103.198 54.1 102.698 54 102.698 53.9C102.698 53.7 102.898 53.3 102.798 53.1C102.698 53 102.398 52.9 102.298 52.8C102.198 52.7 102.498 52.5 102.398 52.4C102.298 52.2 102.098 52.3 101.898 52.2C101.798 52.1 101.598 51.6 101.498 51.5C101.398 51.4 101.098 51.7 100.998 51.7C100.898 51.6 100.898 51.2 100.698 51.2C100.498 51.1 100.198 51.4 99.8981 51.4C99.6981 51.4 99.6981 51 99.4981 51C99.2981 51 99.0981 51.4 98.8981 51.4C98.5981 51.5 98.3981 51.4 98.1981 51.5C97.9981 51.6 97.7981 51.4 97.5981 51.5C97.4981 51.6 97.4981 51.9 97.3981 52C97.1981 52.2 96.8981 52 96.7981 52.2C96.6981 52.3 96.7981 52.8 96.6981 53C96.5981 53.2 96.1981 53.1 96.0981 53.4C95.9981 53.6 96.3981 54 96.3981 54.2C96.4981 54.5 96.2981 54.7 96.3981 55.1Z" fill="#3281C4"/>
<path d="M95.2998 78.1C102.3 75 107.4 65.1 107.4 65.1L104.8 61.8C104.8 61.8 100.7 69 96.9998 70.2L95.2998 78.1Z" fill="#E3646A"/>
<path d="M105.8 90.5C111.8 87.8 114.2 74.6 114.2 74.6C114.2 74.6 111.7 71 111.4 70.7C111.4 70.7 108.4 84.1 95.2002 90C99.8002 91.7 105.8 90.5 105.8 90.5Z" fill="#E3646A"/>
<path d="M287.301 56.5C294.001 64.4 310.501 64.6 312.801 60.8C310.001 49.8 305.901 29.3 305.901 29.3C305.901 29.3 289.901 49.3 287.301 56.5Z" fill="#FAE969"/>
<path d="M309.301 28.8C309.301 29 309.501 29.2 309.501 29.3C309.401 29.5 309.101 29.4 309.001 29.6C308.901 29.8 309.101 30.1 309.001 30.3C308.901 30.5 308.501 30.4 308.401 30.5C308.201 30.7 308.201 31 308.001 31.1C307.701 31.3 307.401 31.1 307.101 31.2C306.901 31.3 306.801 31.6 306.601 31.6C306.301 31.6 305.901 31.6 305.601 31.6C305.301 31.5 305.101 31.2 304.801 31C304.701 30.9 304.401 31.1 304.201 31.1C304.001 31 303.901 30.7 303.701 30.6C303.501 30.4 303.701 30.1 303.601 29.8C303.401 29.5 303.001 29.6 302.901 29.3C302.901 29.1 303.201 28.9 303.201 28.7C303.201 28.6 302.801 28.4 302.801 28.2C302.701 27.9 303.101 27.9 303.201 27.7C303.201 27.5 303.001 27.2 303.101 27C303.201 26.9 303.501 26.8 303.601 26.7C303.701 26.6 303.401 26.4 303.501 26.3C303.601 26.1 303.801 26.2 304.001 26.1C304.101 26 304.201 25.6 304.401 25.5C304.501 25.4 304.801 25.7 304.901 25.7C305.001 25.6 305.001 25.2 305.101 25.2C305.301 25.1 305.601 25.4 305.801 25.3C306.001 25.3 306.001 25 306.201 25C306.401 25 306.601 25.4 306.801 25.4C307.101 25.4 307.301 25.4 307.501 25.5C307.701 25.6 307.901 25.4 308.101 25.5C308.201 25.6 308.201 25.9 308.301 25.9C308.501 26 308.801 25.9 308.901 26.1C309.001 26.2 308.901 26.7 309.001 26.8C309.101 27 309.501 26.9 309.601 27.2C309.701 27.4 309.301 27.8 309.301 28C309.201 28.3 309.401 28.5 309.301 28.8Z" fill="#3281C4"/>
<path d="M310.401 50.9C303.701 48 298.801 38.5 298.801 38.5L301.201 35.3C301.201 35.3 305.201 42.2 308.801 43.4L310.401 50.9Z" fill="#7BDDEF"/>
<path d="M300.501 62.9C294.701 60.3 292.301 47.6 292.301 47.6C292.301 47.6 294.701 44.1 294.901 43.8C294.901 43.8 297.801 56.7 310.501 62.3C306.201 64 300.501 62.9 300.501 62.9Z" fill="#7BDDEF"/>
</g>
<defs>
<linearGradient id="paint0_linear" x1="81.6331" y1="73.4255" x2="102.328" y2="87.8303" gradientUnits="userSpaceOnUse">
<stop offset="0.2689" stop-color="#594539"/>
<stop offset="0.8111" stop-color="#463228"/>
</linearGradient>
<linearGradient id="paint1_linear" x1="115.208" y1="120.765" x2="115.896" y2="142.207" gradientUnits="userSpaceOnUse">
<stop offset="0.06676" stop-color="#9B643D"/>
<stop offset="0.8469" stop-color="#E0BB95"/>
</linearGradient>
<radialGradient id="paint2_radial" cx="0" cy="0" r="1" gradientUnits="userSpaceOnUse" gradientTransform="translate(120.62 115.207) rotate(163.273) scale(7.44785 7.37962)">
<stop offset="0.0829848" stop-color="#9B643D"/>
<stop offset="0.8311" stop-color="#E0BB95"/>
</radialGradient>
<radialGradient id="paint3_radial" cx="0" cy="0" r="1" gradientUnits="userSpaceOnUse" gradientTransform="translate(253 153.5) rotate(-82.8065) scale(51.9086 49.1914)">
<stop stop-color="#008890"/>
<stop offset="0.1159" stop-color="#009CA4"/>
<stop offset="0.2554" stop-color="#2CB2B9"/>
<stop offset="0.4018" stop-color="#2CB2B9"/>
<stop offset="0.5655" stop-color="#2CB2B9"/>
</radialGradient>
<radialGradient id="paint4_radial" cx="0" cy="0" r="1" gradientUnits="userSpaceOnUse" gradientTransform="translate(337.5 172) rotate(1.65767) scale(57.9889)">
<stop stop-color="#008890"/>
<stop offset="0.1159" stop-color="#009CA4"/>
<stop offset="0.2554" stop-color="#2CB2B9"/>
<stop offset="0.4018" stop-color="#2CB2B9"/>
<stop offset="0.5655" stop-color="#2CB2B9"/>
</radialGradient>
<radialGradient id="paint5_radial" cx="0" cy="0" r="1" gradientUnits="userSpaceOnUse" gradientTransform="translate(293.364 100.314) scale(22.8572)">
<stop offset="0.173" stop-color="#724937"/>
<stop offset="0.7031" stop-color="#9B643D"/>
</radialGradient>
<radialGradient id="paint6_radial" cx="0" cy="0" r="1" gradientUnits="userSpaceOnUse" gradientTransform="translate(287.732 92.4964) rotate(9.94481) scale(12.5318 11.295)">
<stop offset="0.173" stop-color="#724937"/>
<stop offset="0.703" stop-color="#9B643D"/>
</radialGradient>
<clipPath id="clip0">
<rect width="363" height="230" fill="white"/>
</clipPath>
</defs>
</svg>
