<svg width="38" height="61" viewBox="0 0 38 61" fill="none" xmlns="http://www.w3.org/2000/svg">
<path d="M18.74 33.449C18.0458 33.449 17.5058 33.3101 17.5058 33.1513L17.3516 11.4752C17.3516 11.2965 17.8915 11.1576 18.5857 11.1576C19.2799 11.1576 19.8198 11.2965 19.8198 11.4553L19.9741 33.1115C19.9741 33.31 19.4342 33.449 18.74 33.449Z" fill="#026D70"/>
<path d="M19.5885 21.2312C25.1654 22.6047 28.6294 20.0214 30.0183 13.4883C23.9097 12.419 20.4457 15.0023 19.5885 21.2312Z" fill="#49AEB1"/>
<path d="M17.4469 17.941C11.8765 19.3559 8.39039 16.7555 6.98585 10.2466C13.088 9.13589 16.5676 11.6949 17.4469 17.941Z" fill="#49AEB1"/>
<path d="M18.2719 13.4615C14.4605 8.76846 15.0711 4.45528 20.0941 0.576769C23.86 5.88548 23.254 10.1711 18.2719 13.4615Z" fill="#49AEB1"/>
<path d="M1.70932 27.9114C0.569751 27.9114 0 28.481 0 29.6205V35.1285C0 36.2681 0.569751 36.838 1.70932 36.838L36.1495 36.7746C37.2891 36.7746 37.8588 36.2047 37.8588 35.0652V29.5575C37.8588 28.4179 37.2891 27.848 36.1495 27.848L1.70932 27.9114Z" fill="#C8C6C4"/>
<path d="M33.3798 36.7272L3.68359 36.7873L8.74905 60.922L18.3101 60.8015L28.441 60.922L33.3798 36.7272Z" fill="#EDEBE9"/>
</svg>
