<svg width="134" height="66" viewBox="0 0 134 66" fill="none" xmlns="http://www.w3.org/2000/svg">
<path d="M83.8875 1.87377C84.2815 1.81748 84.6755 1.76142 85.0695 1.53629C85.5197 1.31116 86.1951 0.973409 86.8142 0.635713C88.5027 -0.264809 90.5852 -0.208637 92.2174 0.804451L92.555 0.917126C93.0053 1.14226 93.4556 1.25488 93.9058 1.25488C94.3561 1.25488 94.8064 1.14226 95.2566 0.917126L95.5943 0.804451C97.2265 -0.208637 99.309 -0.264809 100.997 0.635713C101.673 0.973409 102.292 1.31116 102.742 1.53629C103.08 1.70514 103.474 1.81748 103.924 1.87377C106.569 2.0989 108.427 13.0177 96.7762 12.8489C96.7762 12.8489 96.4948 12.8489 95.9883 12.8489C95.2566 12.8489 94.5249 12.8489 93.9058 12.8489C93.2867 12.8489 92.5551 12.8489 91.8234 12.8489C91.3168 12.8489 91.0354 12.8489 91.0354 12.8489C79.3849 13.0177 81.186 2.15518 83.8875 1.87377Z" fill="url(#paint0_linear)"/>
<path d="M74.4951 12.3419C75.0017 12.2856 75.4519 12.1732 75.9022 11.9481C76.465 11.6666 77.253 11.2727 78.041 10.8224C80.1234 9.75303 82.6561 9.80926 84.626 11.0475C85.1326 11.3852 86.3145 11.6666 86.2582 11.6666C86.821 11.8918 87.4401 12.0605 88.0593 12.1168C88.2281 12.1168 88.3407 12.0605 88.5095 12.0605C88.6784 12.0042 88.9035 12.0043 89.0723 11.9481C89.804 11.7792 90.4794 11.4414 91.0422 10.9911C93.0121 9.75292 95.4886 9.69669 97.571 10.7661L98.6967 11.2162C99.8786 11.8353 101.286 11.7792 102.411 11.0475C104.438 9.80926 106.914 9.69675 108.996 10.8224C109.784 11.2164 110.572 11.6666 111.135 11.9481C111.585 12.1732 112.036 12.2856 112.542 12.3419C115.75 12.6233 117.945 25.8498 103.875 25.6246H88.5658H86.3145H83.2189C69.0357 25.8498 71.2307 12.6233 74.4951 12.3419Z" fill="url(#paint1_linear)"/>
<path d="M49.5625 61.4782C49.5625 61.4782 47.2549 41.4414 62.4512 37.1076C75.5088 33.3367 94.1946 50.0528 104.044 35.3067C104.663 34.4062 108.828 35.8132 108.828 35.8132C104.044 47.8577 91.6056 50.2778 75.9591 47.5763C62.0572 45.1561 65.9407 61.5342 65.9407 61.5342C64.7025 64.5172 49.3374 66.2059 49.5625 61.4782Z" fill="url(#paint2_linear)"/>
<path d="M82.1505 25.0624C82.6571 25.0062 83.1073 24.8935 83.5576 24.6684C84.1204 24.3869 84.9084 23.993 85.6963 23.5427C87.7788 22.4733 90.3115 22.5298 92.2814 23.7681C93.4071 24.4435 94.8141 24.4996 95.9961 23.9368L97.1217 23.4866C99.2042 22.4173 101.681 22.5298 103.651 23.7117C104.551 24.3308 105.564 24.7248 106.633 24.8374C107.703 24.7248 108.716 24.3308 109.616 23.7117C111.586 22.4735 114.063 22.4173 116.145 23.4866L117.271 23.9368C118.453 24.5559 119.86 24.4997 120.986 23.7681C123.012 22.5298 125.488 22.4171 127.571 23.5427C128.359 23.9367 129.147 24.3869 129.709 24.6684C130.16 24.8935 130.61 25.0062 131.116 25.0624C134.325 25.3439 136.52 38.5703 122.449 38.3452H106.577H90.8743C76.7474 38.5703 78.9424 25.3439 82.1505 25.0624Z" fill="url(#paint3_linear)"/>
<path d="M114.342 65.1184C113.471 64.2472 60.9834 55.1001 0.00241852 65.1184H114.342Z" fill="#EDEBE9"/>
<path d="M51 31.5C51 37 58 38 59 38.5L62 37.5C54.8 35.9 53 32.8333 53 31.5H51Z" fill="url(#paint4_linear)"/>
<path d="M44.5033 24.4581C44.7984 24.4143 45.0936 24.3707 45.3888 24.1955C45.7261 24.0203 46.2321 23.7575 46.696 23.4947C47.961 22.7939 49.5212 22.8376 50.7441 23.626L50.9971 23.7137C51.3344 23.8889 51.6718 23.9765 52.0091 23.9765C52.3465 23.9765 52.6838 23.8889 53.0211 23.7137L53.2742 23.626C54.497 22.8376 56.0572 22.7939 57.3223 23.4947C57.8283 23.7575 58.2921 24.0203 58.6295 24.1955C58.8825 24.3269 59.1776 24.4143 59.515 24.4581C61.4969 24.6333 62.8884 33.1299 54.1597 32.9985C54.1597 32.9985 53.9488 32.9985 53.5693 32.9985C53.0211 32.9985 52.473 32.9985 52.0091 32.9985C51.5453 32.9985 50.9971 32.9985 50.4489 32.9985C50.0694 32.9985 49.8586 32.9985 49.8586 32.9985C41.1298 33.1299 42.4792 24.6771 44.5033 24.4581Z" fill="url(#paint5_linear)"/>
<defs>
<linearGradient id="paint0_linear" x1="93.9184" y1="17.2216" x2="93.8697" y2="-6.79916" gradientUnits="userSpaceOnUse">
<stop offset="0.000628141" stop-color="#026D70"/>
<stop offset="1" stop-color="#49AEB1"/>
</linearGradient>
<linearGradient id="paint1_linear" x1="93.4364" y1="25.3902" x2="93.6159" y2="-0.00537114" gradientUnits="userSpaceOnUse">
<stop offset="0.000628141" stop-color="#026D70"/>
<stop offset="1" stop-color="#49AEB1"/>
</linearGradient>
<linearGradient id="paint2_linear" x1="108.818" y1="49.7006" x2="49.4209" y2="49.7006" gradientUnits="userSpaceOnUse">
<stop offset="0.00125628" stop-color="#BF8F68"/>
<stop offset="1" stop-color="#E0BB95"/>
</linearGradient>
<linearGradient id="paint3_linear" x1="106.63" y1="44.1552" x2="106.593" y2="11.5182" gradientUnits="userSpaceOnUse">
<stop offset="0.000628141" stop-color="#026D70"/>
<stop offset="1" stop-color="#49AEB1"/>
</linearGradient>
<linearGradient id="paint4_linear" x1="62.5" y1="45" x2="51.5" y2="29.5" gradientUnits="userSpaceOnUse">
<stop stop-color="#BF8F68"/>
<stop offset="0.520833" stop-color="#E0BB95"/>
<stop offset="1" stop-color="#BF8F68"/>
</linearGradient>
<linearGradient id="paint5_linear" x1="52.0185" y1="36.4012" x2="51.9792" y2="17.7092" gradientUnits="userSpaceOnUse">
<stop offset="0.000628141" stop-color="#026D70"/>
<stop offset="1" stop-color="#49AEB1"/>
</linearGradient>
</defs>
</svg>
